<?xml version="1.0" encoding="UTF-8" standalone="no"?>
<!DOCTYPE svg PUBLIC "-//W3C//DTD SVG 1.1//EN"
 "http://www.w3.org/Graphics/SVG/1.1/DTD/svg11.dtd">
<!-- Generated by graphviz version 2.40.1 (20161225.0304)
 -->
<!-- Title: G Pages: 1 -->
<svg width="471pt" height="384pt"
 viewBox="0.00 0.00 471.16 383.88" xmlns="http://www.w3.org/2000/svg" xmlns:xlink="http://www.w3.org/1999/xlink">
<g id="graph0" class="graph" transform="scale(1 1) rotate(0) translate(21.6 362.2838)">
<title>G</title>
<polygon fill="#ffffff" stroke="transparent" points="-21.6,21.6 -21.6,-362.2838 449.5631,-362.2838 449.5631,21.6 -21.6,21.6"/>
<!-- Actions.ts -->
<g id="node1" class="node">
<title>Actions.ts</title>
<path fill="none" stroke="#2c3e50" d="M165.4399,-241.5841C165.4399,-241.5841 111.8005,-241.5841 111.8005,-241.5841 108.2006,-241.5841 104.6007,-237.9842 104.6007,-234.3843 104.6007,-234.3843 104.6007,-227.1845 104.6007,-227.1845 104.6007,-223.5846 108.2006,-219.9847 111.8005,-219.9847 111.8005,-219.9847 165.4399,-219.9847 165.4399,-219.9847 169.0398,-219.9847 172.6398,-223.5846 172.6398,-227.1845 172.6398,-227.1845 172.6398,-234.3843 172.6398,-234.3843 172.6398,-237.9842 169.0398,-241.5841 165.4399,-241.5841"/>
<text text-anchor="middle" x="138.6202" y="-228.0838" font-family="Arial" font-size="12.00" fill="#2c3e50">Actions.ts</text>
</g>
<!-- GameState.ts -->
<g id="node2" class="node">
<title>GameState.ts</title>
<path fill="none" stroke="#2c3e50" d="M286.2289,-131.6417C286.2289,-131.6417 210.8966,-131.6417 210.8966,-131.6417 207.2967,-131.6417 203.6967,-128.0417 203.6967,-124.4418 203.6967,-124.4418 203.6967,-117.242 203.6967,-117.242 203.6967,-113.6421 207.2967,-110.0422 210.8966,-110.0422 210.8966,-110.0422 286.2289,-110.0422 286.2289,-110.0422 289.8288,-110.0422 293.4287,-113.6421 293.4287,-117.242 293.4287,-117.242 293.4287,-124.4418 293.4287,-124.4418 293.4287,-128.0417 289.8288,-131.6417 286.2289,-131.6417"/>
<text text-anchor="middle" x="248.5627" y="-118.1413" font-family="Arial" font-size="12.00" fill="#2c3e50">GameState.ts</text>
</g>
<!-- Actions.ts&#45;&gt;GameState.ts -->
<g id="edge1" class="edge">
<title>Actions.ts&#45;&gt;GameState.ts</title>
<path fill="none" stroke="#34495e" d="M149.5639,-219.8408C168.4973,-200.9073 207.5404,-161.8642 230.5333,-138.8713"/>
<polygon fill="#34495e" stroke="#34495e" points="233.0671,-141.2873 237.6633,-131.7413 228.1174,-136.3375 233.0671,-141.2873"/>
</g>
<!-- Item.ts -->
<g id="node3" class="node">
<title>Item.ts</title>
<path fill="none" stroke="#27ae60" d="M158.4204,-340.5841C158.4204,-340.5841 118.8201,-340.5841 118.8201,-340.5841 115.2201,-340.5841 111.6202,-336.9842 111.6202,-333.3843 111.6202,-333.3843 111.6202,-326.1845 111.6202,-326.1845 111.6202,-322.5846 115.2201,-318.9847 118.8201,-318.9847 118.8201,-318.9847 158.4204,-318.9847 158.4204,-318.9847 162.0203,-318.9847 165.6202,-322.5846 165.6202,-326.1845 165.6202,-326.1845 165.6202,-333.3843 165.6202,-333.3843 165.6202,-336.9842 162.0203,-340.5841 158.4204,-340.5841"/>
<text text-anchor="middle" x="138.6202" y="-327.0838" font-family="Arial" font-size="12.00" fill="#27ae60">Item.ts</text>
</g>
<!-- Actions.ts&#45;&gt;Item.ts -->
<g id="edge2" class="edge">
<title>Actions.ts&#45;&gt;Item.ts</title>
<path fill="none" stroke="#34495e" d="M138.6202,-241.7574C138.6202,-257.8138 138.6202,-288.0239 138.6202,-308.5239"/>
<polygon fill="#34495e" stroke="#34495e" points="135.1203,-308.7622 138.6202,-318.7623 142.1203,-308.7623 135.1203,-308.7622"/>
</g>
<!-- ContentLoader.ts -->
<g id="node4" class="node">
<title>ContentLoader.ts</title>
<path fill="none" stroke="#27ae60" d="M420.9642,-131.6417C420.9642,-131.6417 327.5616,-131.6417 327.5616,-131.6417 323.9617,-131.6417 320.3618,-128.0417 320.3618,-124.4418 320.3618,-124.4418 320.3618,-117.242 320.3618,-117.242 320.3618,-113.6421 323.9617,-110.0422 327.5616,-110.0422 327.5616,-110.0422 420.9642,-110.0422 420.9642,-110.0422 424.5641,-110.0422 428.1641,-113.6421 428.1641,-117.242 428.1641,-117.242 428.1641,-124.4418 428.1641,-124.4418 428.1641,-128.0417 424.5641,-131.6417 420.9642,-131.6417"/>
<text text-anchor="middle" x="374.2629" y="-118.1413" font-family="Arial" font-size="12.00" fill="#27ae60">ContentLoader.ts</text>
</g>
<!-- GameState.ts&#45;&gt;ContentLoader.ts -->
<g id="edge3" class="edge">
<title>GameState.ts&#45;&gt;ContentLoader.ts</title>
<path fill="none" stroke="#34495e" d="M293.5883,-120.8419C299.0479,-120.8419 304.7031,-120.8419 310.3696,-120.8419"/>
<polygon fill="#34495e" stroke="#34495e" points="310.5417,-124.342 320.5417,-120.8419 310.5416,-117.342 310.5417,-124.342"/>
</g>
<!-- UserInterface.ts -->
<g id="node5" class="node">
<title>UserInterface.ts</title>
<path fill="none" stroke="#2c3e50" d="M181.6181,-21.6992C181.6181,-21.6992 95.6223,-21.6992 95.6223,-21.6992 92.0224,-21.6992 88.4225,-18.0992 88.4225,-14.4993 88.4225,-14.4993 88.4225,-7.2995 88.4225,-7.2995 88.4225,-3.6996 92.0224,-.0997 95.6223,-.0997 95.6223,-.0997 181.6181,-.0997 181.6181,-.0997 185.218,-.0997 188.8179,-3.6996 188.8179,-7.2995 188.8179,-7.2995 188.8179,-14.4993 188.8179,-14.4993 188.8179,-18.0992 185.218,-21.6992 181.6181,-21.6992"/>
<text text-anchor="middle" x="138.6202" y="-8.1988" font-family="Arial" font-size="12.00" fill="#2c3e50">UserInterface.ts</text>
</g>
<!-- UserInterface.ts&#45;&gt;GameState.ts -->
<g id="edge4" class="edge">
<title>UserInterface.ts&#45;&gt;GameState.ts</title>
<path fill="none" stroke="#34495e" d="M149.5639,-21.8431C168.4973,-40.7765 207.5404,-79.8196 230.5333,-102.8125"/>
<polygon fill="#34495e" stroke="#34495e" points="228.1174,-105.3463 237.6633,-109.9425 233.0671,-100.3965 228.1174,-105.3463"/>
</g>
<!-- index.ts -->
<g id="node6" class="node">
<title>index.ts</title>
<path fill="none" stroke="#2c3e50" d="M50.3345,-131.6417C50.3345,-131.6417 7.021,-131.6417 7.021,-131.6417 3.4211,-131.6417 -.1788,-128.0417 -.1788,-124.4418 -.1788,-124.4418 -.1788,-117.242 -.1788,-117.242 -.1788,-113.6421 3.4211,-110.0422 7.021,-110.0422 7.021,-110.0422 50.3345,-110.0422 50.3345,-110.0422 53.9344,-110.0422 57.5343,-113.6421 57.5343,-117.242 57.5343,-117.242 57.5343,-124.4418 57.5343,-124.4418 57.5343,-128.0417 53.9344,-131.6417 50.3345,-131.6417"/>
<text text-anchor="middle" x="28.6777" y="-118.1413" font-family="Arial" font-size="12.00" fill="#2c3e50">index.ts</text>
</g>
<!-- index.ts&#45;&gt;Actions.ts -->
<g id="edge5" class="edge">
<title>index.ts&#45;&gt;Actions.ts</title>
<path fill="none" stroke="#34495e" d="M39.6214,-131.7856C58.5548,-150.719 97.5979,-189.7621 120.5908,-212.755"/>
<polygon fill="#34495e" stroke="#34495e" points="118.1749,-215.2888 127.7208,-219.885 123.1246,-210.339 118.1749,-215.2888"/>
</g>
<!-- index.ts&#45;&gt;GameState.ts -->
<g id="edge6" class="edge">
<title>index.ts&#45;&gt;GameState.ts</title>
<path fill="none" stroke="#34495e" d="M57.4239,-120.8419C91.9106,-120.8419 150.4804,-120.8419 193.7178,-120.8419"/>
<polygon fill="#34495e" stroke="#34495e" points="193.8007,-124.342 203.8007,-120.8419 193.8006,-117.342 193.8007,-124.342"/>
</g>
<!-- index.ts&#45;&gt;UserInterface.ts -->
<g id="edge7" class="edge">
<title>index.ts&#45;&gt;UserInterface.ts</title>
<path fill="none" stroke="#34495e" d="M39.6214,-109.8983C58.5548,-90.9648 97.5979,-51.9217 120.5908,-28.9288"/>
<polygon fill="#34495e" stroke="#34495e" points="123.1246,-31.3448 127.7208,-21.7988 118.1749,-26.395 123.1246,-31.3448"/>
</g>
</g>
</svg>
