<?xml version="1.0" encoding="UTF-8" standalone="no"?>
<!DOCTYPE svg PUBLIC "-//W3C//DTD SVG 1.1//EN"
 "http://www.w3.org/Graphics/SVG/1.1/DTD/svg11.dtd">
<!-- Generated by graphviz version 2.40.1 (20161225.0304)
 -->
<!-- Title: G Pages: 1 -->
<svg width="667pt" height="120pt"
 viewBox="0.00 0.00 667.18 119.67" xmlns="http://www.w3.org/2000/svg" xmlns:xlink="http://www.w3.org/1999/xlink">
<g id="graph0" class="graph" transform="scale(1 1) rotate(0) translate(21.6 98.0669)">
<title>G</title>
<polygon fill="#111111" stroke="transparent" points="-21.6,21.6 -21.6,-98.0669 645.5775,-98.0669 645.5775,21.6 -21.6,21.6"/>
<!-- Actions.ts -->
<g id="node1" class="node">
<title>Actions.ts</title>
<path fill="none" stroke="#ff6c60" d="M68.4689,-62.1482C68.4689,-62.1482 8.2205,-62.1482 8.2205,-62.1482 4.1876,-62.1482 .1546,-58.1152 .1546,-54.0823 .1546,-54.0823 .1546,-46.0164 .1546,-46.0164 .1546,-41.9834 4.1876,-37.9505 8.2205,-37.9505 8.2205,-37.9505 68.4689,-37.9505 68.4689,-37.9505 72.5019,-37.9505 76.5348,-41.9834 76.5348,-46.0164 76.5348,-46.0164 76.5348,-54.0823 76.5348,-54.0823 76.5348,-58.1152 72.5019,-62.1482 68.4689,-62.1482"/>
<text text-anchor="middle" x="38.3447" y="-46.8986" font-family="Arial" font-size="14.00" fill="#ff6c60">Actions.ts</text>
</g>
<!-- GameState.ts -->
<g id="node2" class="node">
<title>GameState.ts</title>
<path fill="none" stroke="#c6c5fe" d="M457.0751,-64.1482C457.0751,-64.1482 372.0197,-64.1482 372.0197,-64.1482 367.9867,-64.1482 363.9538,-60.1152 363.9538,-56.0823 363.9538,-56.0823 363.9538,-48.0164 363.9538,-48.0164 363.9538,-43.9834 367.9867,-39.9505 372.0197,-39.9505 372.0197,-39.9505 457.0751,-39.9505 457.0751,-39.9505 461.108,-39.9505 465.1409,-43.9834 465.1409,-48.0164 465.1409,-48.0164 465.1409,-56.0823 465.1409,-56.0823 465.1409,-60.1152 461.108,-64.1482 457.0751,-64.1482"/>
<text text-anchor="middle" x="414.5474" y="-48.8986" font-family="Arial" font-size="14.00" fill="#c6c5fe">GameState.ts</text>
</g>
<!-- Actions.ts&#45;&gt;GameState.ts -->
<g id="edge1" class="edge">
<title>Actions.ts&#45;&gt;GameState.ts</title>
<path fill="none" stroke="#757575" d="M73.468,-62.1121C85.7236,-65.7456 99.6699,-69.2458 112.6895,-71.0493 195.6613,-82.5429 292.4375,-72.3349 353.5969,-63.0083"/>
<polygon fill="#757575" stroke="#757575" points="354.5065,-66.4086 363.8442,-61.4029 353.423,-59.493 354.5065,-66.4086"/>
</g>
<!-- index.ts -->
<g id="node3" class="node">
<title>index.ts</title>
<path fill="none" stroke="#ff6c60" d="M168.9961,-62.1482C168.9961,-62.1482 120.6308,-62.1482 120.6308,-62.1482 116.5979,-62.1482 112.5649,-58.1152 112.5649,-54.0823 112.5649,-54.0823 112.5649,-46.0164 112.5649,-46.0164 112.5649,-41.9834 116.5979,-37.9505 120.6308,-37.9505 120.6308,-37.9505 168.9961,-37.9505 168.9961,-37.9505 173.0291,-37.9505 177.062,-41.9834 177.062,-46.0164 177.062,-46.0164 177.062,-54.0823 177.062,-54.0823 177.062,-58.1152 173.0291,-62.1482 168.9961,-62.1482"/>
<text text-anchor="middle" x="144.8135" y="-46.8986" font-family="Arial" font-size="14.00" fill="#ff6c60">index.ts</text>
</g>
<!-- Actions.ts&#45;&gt;index.ts -->
<g id="edge2" class="edge">
<title>Actions.ts&#45;&gt;index.ts</title>
<path fill="none" stroke="#757575" d="M76.7824,-43.5366C85.0822,-43.2639 93.9034,-43.2263 102.3473,-43.4236"/>
<polygon fill="#757575" stroke="#757575" points="102.2815,-46.9234 112.3995,-43.7808 102.5301,-39.9278 102.2815,-46.9234"/>
</g>
<!-- ContentLoader.ts -->
<g id="node4" class="node">
<title>ContentLoader.ts</title>
<path fill="none" stroke="#cfffac" d="M615.7291,-64.1482C615.7291,-64.1482 509.5922,-64.1482 509.5922,-64.1482 505.5593,-64.1482 501.5263,-60.1152 501.5263,-56.0823 501.5263,-56.0823 501.5263,-48.0164 501.5263,-48.0164 501.5263,-43.9834 505.5593,-39.9505 509.5922,-39.9505 509.5922,-39.9505 615.7291,-39.9505 615.7291,-39.9505 619.762,-39.9505 623.795,-43.9834 623.795,-48.0164 623.795,-48.0164 623.795,-56.0823 623.795,-56.0823 623.795,-60.1152 619.762,-64.1482 615.7291,-64.1482"/>
<text text-anchor="middle" x="562.6606" y="-48.8986" font-family="Arial" font-size="14.00" fill="#cfffac">ContentLoader.ts</text>
</g>
<!-- GameState.ts&#45;&gt;ContentLoader.ts -->
<g id="edge3" class="edge">
<title>GameState.ts&#45;&gt;ContentLoader.ts</title>
<path fill="none" stroke="#757575" d="M465.5196,-52.0493C473.8195,-52.0493 482.5493,-52.0493 491.2309,-52.0493"/>
<polygon fill="#757575" stroke="#757575" points="491.3716,-55.5494 501.3716,-52.0493 491.3715,-48.5494 491.3716,-55.5494"/>
</g>
<!-- index.ts&#45;&gt;Actions.ts -->
<g id="edge5" class="edge">
<title>index.ts&#45;&gt;Actions.ts</title>
<path fill="none" stroke="#757575" d="M112.3995,-56.3178C104.3231,-56.7105 95.4877,-56.863 86.8219,-56.7753"/>
<polygon fill="#757575" stroke="#757575" points="86.8545,-53.2753 76.7824,-56.562 86.7058,-60.2737 86.8545,-53.2753"/>
</g>
<!-- index.ts&#45;&gt;GameState.ts -->
<g id="edge6" class="edge">
<title>index.ts&#45;&gt;GameState.ts</title>
<path fill="none" stroke="#757575" d="M177.0818,-50.2886C220.565,-50.611 298.8224,-51.1912 353.5749,-51.5972"/>
<polygon fill="#757575" stroke="#757575" points="353.827,-55.0991 363.8527,-51.6734 353.879,-48.0993 353.827,-55.0991"/>
</g>
<!-- UserInterface.ts -->
<g id="node5" class="node">
<title>UserInterface.ts</title>
<path fill="none" stroke="#c6c5fe" d="M319.592,-24.1482C319.592,-24.1482 221.0965,-24.1482 221.0965,-24.1482 217.0636,-24.1482 213.0306,-20.1152 213.0306,-16.0823 213.0306,-16.0823 213.0306,-8.0164 213.0306,-8.0164 213.0306,-3.9834 217.0636,.0495 221.0965,.0495 221.0965,.0495 319.592,.0495 319.592,.0495 323.6249,.0495 327.6579,-3.9834 327.6579,-8.0164 327.6579,-8.0164 327.6579,-16.0823 327.6579,-16.0823 327.6579,-20.1152 323.6249,-24.1482 319.592,-24.1482"/>
<text text-anchor="middle" x="270.3442" y="-8.8986" font-family="Arial" font-size="14.00" fill="#c6c5fe">UserInterface.ts</text>
</g>
<!-- index.ts&#45;&gt;UserInterface.ts -->
<g id="edge7" class="edge">
<title>index.ts&#45;&gt;UserInterface.ts</title>
<path fill="none" stroke="#757575" d="M177.1408,-40.2634C190.362,-36.2611 205.9608,-31.5391 220.5762,-27.1148"/>
<polygon fill="#757575" stroke="#757575" points="221.9392,-30.3592 230.4962,-24.1119 219.911,-23.6594 221.9392,-30.3592"/>
</g>
<!-- UserInterface.ts&#45;&gt;GameState.ts -->
<g id="edge4" class="edge">
<title>UserInterface.ts&#45;&gt;GameState.ts</title>
<path fill="none" stroke="#757575" d="M314.0013,-24.1592C328.8254,-28.2712 345.56,-32.9131 361.0621,-37.2132"/>
<polygon fill="#757575" stroke="#757575" points="360.467,-40.6803 371.0387,-39.9806 362.3381,-33.9349 360.467,-40.6803"/>
</g>
</g>
</svg>
